<svg xmlns="http://www.w3.org/2000/svg" xmlns:xlink="http://www.w3.org/1999/xlink" width="500" zoomAndPan="magnify" viewBox="0 0 375 374.999991" height="500" preserveAspectRatio="xMidYMid meet" version="1.0"><defs><g/></defs><g fill="#e4e2dd" fill-opacity="1"><g transform="translate(101.66085, 197.598825)"><g><path d="M 4.890625 -3.265625 C 2.421875 -5.972656 1.1875 -9.285156 1.1875 -13.203125 C 1.1875 -17.117188 2.421875 -20.429688 4.890625 -23.140625 C 7.367188 -25.859375 10.515625 -27.21875 14.328125 -27.21875 C 17.835938 -27.21875 20.726562 -26.117188 23 -23.921875 L 23 -26.453125 L 32.125 -26.453125 L 32.125 0 L 23.09375 0 L 23.09375 -2.984375 L 23 -2.984375 C 20.726562 -0.472656 17.835938 0.78125 14.328125 0.78125 C 10.515625 0.78125 7.367188 -0.566406 4.890625 -3.265625 Z M 12.65625 -17.6875 C 11.46875 -16.519531 10.875 -15.023438 10.875 -13.203125 C 10.875 -11.378906 11.441406 -9.890625 12.578125 -8.734375 C 13.710938 -7.585938 15.207031 -7.015625 17.0625 -7.015625 C 18.851562 -7.015625 20.320312 -7.597656 21.46875 -8.765625 C 22.625 -9.929688 23.203125 -11.410156 23.203125 -13.203125 C 23.203125 -15.023438 22.609375 -16.519531 21.421875 -17.6875 C 20.234375 -18.851562 18.78125 -19.4375 17.0625 -19.4375 C 15.3125 -19.4375 13.84375 -18.851562 12.65625 -17.6875 Z M 12.65625 -17.6875 "/></g></g></g><g fill="#e4e2dd" fill-opacity="1"><g transform="translate(132.494607, 197.598825)"><g><path d="M 1.90625 6.5 L 9.390625 2.84375 C 10.765625 5.101562 13.148438 6.234375 16.546875 6.234375 C 18.128906 6.234375 19.597656 5.726562 20.953125 4.71875 C 22.316406 3.707031 23 2.148438 23 0.046875 L 23 -1.90625 C 21.382812 -0.113281 18.492188 0.78125 14.328125 0.78125 C 10.515625 0.78125 7.367188 -0.566406 4.890625 -3.265625 C 2.421875 -5.972656 1.1875 -9.285156 1.1875 -13.203125 C 1.1875 -17.117188 2.421875 -20.429688 4.890625 -23.140625 C 7.367188 -25.859375 10.515625 -27.21875 14.328125 -27.21875 C 17.734375 -27.21875 20.570312 -26.171875 22.84375 -24.078125 L 23 -24.078125 L 23 -26.453125 L 32.125 -26.453125 L 32.125 0.71875 C 32.125 5.019531 30.695312 8.335938 27.84375 10.671875 C 24.988281 13.015625 21.222656 14.1875 16.546875 14.1875 C 8.984375 14.1875 4.101562 11.625 1.90625 6.5 Z M 12.65625 -17.6875 C 11.46875 -16.519531 10.875 -15.023438 10.875 -13.203125 C 10.875 -11.378906 11.441406 -9.890625 12.578125 -8.734375 C 13.710938 -7.585938 15.207031 -7.015625 17.0625 -7.015625 C 18.851562 -7.015625 20.320312 -7.597656 21.46875 -8.765625 C 22.625 -9.929688 23.203125 -11.410156 23.203125 -13.203125 C 23.203125 -15.023438 22.609375 -16.519531 21.421875 -17.6875 C 20.234375 -18.851562 18.78125 -19.4375 17.0625 -19.4375 C 15.3125 -19.4375 13.84375 -18.851562 12.65625 -17.6875 Z M 12.65625 -17.6875 "/></g></g></g><g fill="#e4e2dd" fill-opacity="1"><g transform="translate(163.328364, 197.598825)"><g><path d="M 29.859375 -11.96875 L 10.671875 -11.96875 C 10.671875 -10.101562 11.269531 -8.722656 12.46875 -7.828125 C 13.675781 -6.941406 14.984375 -6.5 16.390625 -6.5 C 17.867188 -6.5 19.035156 -6.695312 19.890625 -7.09375 C 20.753906 -7.488281 21.738281 -8.269531 22.84375 -9.4375 L 29.4375 -6.140625 C 26.6875 -1.523438 22.117188 0.78125 15.734375 0.78125 C 11.742188 0.78125 8.320312 -0.582031 5.46875 -3.3125 C 2.613281 -6.050781 1.1875 -9.34375 1.1875 -13.1875 C 1.1875 -17.039062 2.613281 -20.34375 5.46875 -23.09375 C 8.320312 -25.84375 11.742188 -27.21875 15.734375 -27.21875 C 19.921875 -27.21875 23.328125 -26.003906 25.953125 -23.578125 C 28.585938 -21.160156 29.90625 -17.703125 29.90625 -13.203125 C 29.90625 -12.578125 29.890625 -12.164062 29.859375 -11.96875 Z M 10.9375 -17.015625 L 20.984375 -17.015625 C 20.773438 -18.390625 20.234375 -19.445312 19.359375 -20.1875 C 18.484375 -20.925781 17.359375 -21.296875 15.984375 -21.296875 C 14.472656 -21.296875 13.269531 -20.898438 12.375 -20.109375 C 11.476562 -19.316406 11 -18.285156 10.9375 -17.015625 Z M 10.9375 -17.015625 "/></g></g></g><g fill="#e4e2dd" fill-opacity="1"><g transform="translate(190.037122, 197.598825)"><g><path d="M 3.09375 0 L 3.09375 -26.453125 L 12.21875 -26.453125 L 12.21875 -23.671875 L 12.328125 -23.671875 C 14.691406 -26.035156 17.21875 -27.21875 19.90625 -27.21875 C 21.207031 -27.21875 22.503906 -27.046875 23.796875 -26.703125 C 25.085938 -26.359375 26.320312 -25.828125 27.5 -25.109375 C 28.6875 -24.390625 29.648438 -23.367188 30.390625 -22.046875 C 31.128906 -20.722656 31.5 -19.179688 31.5 -17.421875 L 31.5 0 L 22.375 0 L 22.375 -14.953125 C 22.375 -16.328125 21.9375 -17.53125 21.0625 -18.5625 C 20.1875 -19.59375 19.046875 -20.109375 17.640625 -20.109375 C 16.265625 -20.109375 15.015625 -19.570312 13.890625 -18.5 C 12.773438 -17.4375 12.21875 -16.253906 12.21875 -14.953125 L 12.21875 0 Z M 3.09375 0 "/></g></g></g><g fill="#e4e2dd" fill-opacity="1"><g transform="translate(219.736495, 197.598825)"><g><path d="M 17.171875 -19.75 C 15.453125 -19.75 13.972656 -19.113281 12.734375 -17.84375 C 11.492188 -16.570312 10.875 -15.039062 10.875 -13.25 C 10.875 -11.425781 11.492188 -9.878906 12.734375 -8.609375 C 13.972656 -7.335938 15.453125 -6.703125 17.171875 -6.703125 C 17.992188 -6.703125 18.773438 -6.804688 19.515625 -7.015625 C 20.253906 -7.222656 20.796875 -7.425781 21.140625 -7.625 L 21.609375 -7.9375 L 24.703125 -1.59375 C 24.460938 -1.425781 24.125 -1.210938 23.6875 -0.953125 C 23.257812 -0.691406 22.28125 -0.335938 20.75 0.109375 C 19.21875 0.554688 17.578125 0.78125 15.828125 0.78125 C 11.941406 0.78125 8.53125 -0.582031 5.59375 -3.3125 C 2.65625 -6.050781 1.1875 -9.332031 1.1875 -13.15625 C 1.1875 -17 2.65625 -20.300781 5.59375 -23.0625 C 8.53125 -25.832031 11.941406 -27.21875 15.828125 -27.21875 C 17.578125 -27.21875 19.191406 -27.007812 20.671875 -26.59375 C 22.148438 -26.1875 23.203125 -25.78125 23.828125 -25.375 L 24.703125 -24.75 L 21.609375 -18.515625 C 20.472656 -19.335938 18.992188 -19.75 17.171875 -19.75 Z M 17.171875 -19.75 "/></g></g></g><g fill="#e4e2dd" fill-opacity="1"><g transform="translate(240.670266, 197.598825)"><g><path d="M 23.15625 -26.453125 L 33.671875 -26.453125 L 12.890625 13.40625 L 2.375 13.40625 L 11.5 -4.125 L -1.03125 -26.453125 L 9.484375 -26.453125 L 16.859375 -12.890625 Z M 23.15625 -26.453125 "/></g></g></g><path stroke-linecap="butt" transform="matrix(0.75, 0, 0, 0.75, 86.824247, 226.57314)" fill="none" stroke-linejoin="miter" d="M -0.0000373981 5.001439 L 84.43226 5.001439 " stroke="#e4e2dd" stroke-width="10" stroke-opacity="1" stroke-miterlimit="4"/><path stroke-linecap="butt" transform="matrix(0, 0.75, -0.75, 0, 94.320402, 169.979446)" fill="none" stroke-linejoin="miter" d="M 0.00136308 5.000119 L 82.46491 5.000119 " stroke="#e4e2dd" stroke-width="10" stroke-opacity="1" stroke-miterlimit="4"/><path stroke-linecap="butt" transform="matrix(-0.75, 0, 0, -0.75, 287.237477, 146.919146)" fill="none" stroke-linejoin="miter" d="M -0.00107255 5.00157 L 84.431225 5.00157 " stroke="#e4e2dd" stroke-width="10" stroke-opacity="1" stroke-miterlimit="4"/><path stroke-linecap="butt" transform="matrix(0, -0.75, 0.75, 0, 279.741344, 203.512837)" fill="none" stroke-linejoin="miter" d="M 0.00149105 5.001125 L 82.465038 5.001125 " stroke="#e4e2dd" stroke-width="10" stroke-opacity="1" stroke-miterlimit="4"/></svg>